<?xml version="1.0" standalone="no"?>
<!DOCTYPE svg PUBLIC "-//W3C//DTD SVG 20010904//EN"
 "http://www.w3.org/TR/2001/REC-SVG-20010904/DTD/svg10.dtd">
<svg version="1.0" xmlns="http://www.w3.org/2000/svg"
 width="425.000000pt" height="470.000000pt" viewBox="0 0 425.000000 470.000000"
 preserveAspectRatio="xMidYMid meet">

<g transform="translate(0.000000,470.000000) scale(0.100000,-0.100000)"
fill="#000000" stroke="none">
<path d="M3230 4694 c-192 -34 -290 -72 -438 -173 -276 -187 -550 -575 -678
-956 -20 -61 -37 -111 -39 -113 -1 -2 -29 43 -60 100 -225 402 -489 653 -795
754 -81 27 -93 28 -270 28 -164 -1 -198 -4 -297 -27 -249 -58 -406 -154 -512
-312 -150 -224 -177 -562 -76 -926 136 -484 488 -1136 978 -1808 476 -654 956
-1151 1201 -1245 67 -26 90 -13 162 89 32 47 135 192 228 322 358 502 622 912
804 1248 38 72 107 198 152 280 305 553 448 851 539 1121 94 283 135 544 112
730 -37 306 -160 515 -407 695 -91 67 -271 154 -359 174 -73 17 -202 27 -245
19z m20 -188 c0 -13 7 -43 15 -67 9 -27 10 -37 2 -25 -35 55 -55 70 -92 70
-28 0 -43 -6 -57 -24 -26 -32 -20 -102 17 -210 53 -154 6 -85 -60 90 -15 41
-40 85 -54 97 l-25 22 27 10 c15 6 39 16 55 22 36 16 122 37 150 38 17 1 22
-5 22 -23z m210 1 c0 -7 -6 -21 -13 -32 -13 -17 -15 -16 -25 13 -10 30 -10 32
14 32 13 0 24 -6 24 -13z m222 -98 c26 -17 48 -33 48 -34 0 -2 -13 -10 -30
-18 -29 -15 -29 -15 -55 28 -39 67 -34 70 37 24z m-782 -42 c0 -13 9 -49 19
-80 l20 -57 -38 0 c-27 0 -44 -7 -61 -25 -21 -22 -22 -30 -16 -88 3 -35 13
-85 22 -110 32 -93 6 -68 -75 74 l-83 144 44 38 c66 59 152 127 161 127 4 0 7
-11 7 -23z m1010 -154 c24 -29 59 -79 77 -111 32 -56 77 -172 69 -179 -3 -3
-173 267 -234 371 -14 24 48 -33 88 -81z m-2884 -64 c-14 -17 -26 -39 -26 -49
0 -9 39 -98 86 -196 93 -194 214 -448 276 -584 74 -161 20 -65 -121 215 -118
235 -267 502 -345 618 l-18 27 87 0 87 0 -26 -31z m-290 -37 c3 -65 51 -186
209 -522 68 -143 834 -1693 853 -1724 3 -5 0 -6 -6 -2 -6 3 -21 25 -34 49 -14
23 -88 150 -165 282 -420 717 -596 1059 -798 1550 -75 182 -145 343 -156 358
-12 16 -19 30 -17 31 1 2 26 8 53 14 28 5 52 10 55 11 3 0 6 -20 6 -47z m517
7 c99 -42 196 -110 300 -212 l91 -90 -27 -13 c-31 -17 -47 -43 -47 -79 0 -15
29 -115 65 -223 36 -108 65 -200 65 -206 0 -5 -35 51 -79 125 -129 220 -271
439 -471 721 -13 20 -13 20 10 13 14 -4 56 -20 93 -36z m-711 -209 c40 -108
169 -414 200 -475 12 -22 50 -110 85 -195 82 -196 78 -187 65 -175 -5 6 -105
213 -222 460 -116 248 -219 456 -228 463 -9 6 -26 12 -39 12 -33 0 -28 14 15
42 76 52 76 52 83 5 3 -23 22 -85 41 -137z m2038 155 c0 -8 -4 -15 -10 -15 -5
0 -10 7 -10 15 0 8 5 15 10 15 6 0 10 -7 10 -15z m-2261 -180 c1 -5 -13 -10
-29 -11 -36 -1 -37 4 -8 42 l22 28 7 -25 c4 -13 7 -28 8 -34z m2171 40 c0 -8
-4 -15 -9 -15 -13 0 -22 16 -14 24 11 11 23 6 23 -9z m-2232 -250 c93 -209 94
-212 73 -185 -12 14 -21 28 -21 31 0 9 -49 29 -71 29 -11 0 -31 -11 -45 -25
-14 -14 -26 -25 -27 -25 -2 0 1 38 5 85 8 99 31 195 43 183 2 -2 21 -43 43
-93z m2167 3 c21 -51 59 -136 83 -188 63 -136 83 -182 79 -187 -2 -2 -21 29
-42 69 -90 172 -167 304 -185 316 -18 13 -18 15 -3 48 9 19 19 34 23 34 3 0
23 -42 45 -92z m-92 -285 c197 -416 267 -566 263 -570 -6 -7 -226 435 -257
517 -23 61 -32 71 -87 96 -6 3 10 74 17 74 4 0 33 -53 64 -117z m-2064 -176
c79 -186 207 -485 241 -562 5 -11 32 -74 60 -140 28 -66 69 -160 90 -210 21
-49 68 -160 105 -245 36 -85 75 -175 86 -199 31 -67 16 -59 -32 16 -183 290
-350 601 -466 868 -85 196 -164 457 -178 590 -3 33 -8 70 -11 83 -13 63 20 0
105 -201z m1995 -115 c30 -67 51 -122 47 -121 -3 0 -24 28 -46 62 -26 40 -49
64 -65 68 -15 3 -23 11 -21 20 3 8 6 33 9 57 2 24 8 42 14 40 5 -2 33 -58 62
-126z m-156 -7 c2 -2 -1 -18 -6 -36 l-9 -34 -22 43 -22 43 28 -7 c15 -4 29 -8
31 -9z m1613 -215 c35 -60 71 -113 81 -116 10 -3 18 -9 18 -14 0 -14 -22 -60
-29 -60 -3 0 -35 62 -69 138 -80 173 -75 162 -69 162 3 0 34 -49 68 -110z
m179 60 c0 -5 -4 -10 -10 -10 -5 0 -10 5 -10 10 0 6 5 10 10 10 6 0 10 -4 10
-10z m-566 -540 c48 -96 92 -186 99 -200 7 -14 27 -32 44 -40 l31 -15 -18 -35
-18 -35 -62 130 c-34 72 -72 153 -85 180 -12 28 -39 86 -60 130 -65 141 -20
66 69 -115z m374 124 c1 -1 -3 -13 -9 -27 -14 -31 -24 -28 -32 10 -3 16 -9 37
-13 48 -6 18 -4 17 22 -5 16 -14 30 -26 32 -26z m-1725 -129 c35 -72 108 -225
162 -340 53 -116 112 -242 130 -281 19 -39 70 -152 115 -250 175 -381 296
-619 325 -640 l28 -21 -24 -32 -24 -33 -13 32 c-26 63 -394 872 -585 1285 -68
149 -134 293 -147 320 -12 28 -29 64 -37 80 -9 17 -11 26 -5 20 6 -5 40 -69
75 -140z m1637 -40 c-1 -5 -9 -26 -20 -45 l-18 -35 -7 30 c-4 17 -9 37 -11 46
-3 12 3 16 26 15 16 -1 30 -5 30 -11z m-226 -404 c2 -3 -2 -17 -9 -31 l-13
-25 -11 28 c-6 16 -11 32 -11 37 0 9 38 2 44 -9z m-121 -237 c-9 -23 -19 -16
-31 22 l-11 36 24 -22 c13 -12 21 -28 18 -36z m-132 -197 c8 -19 9 -31 2 -38
-7 -7 -17 10 -31 49 -12 32 -22 63 -22 68 0 12 37 -44 51 -79z m-182 -102 c24
-44 50 -88 59 -97 13 -16 13 -20 -3 -44 -20 -30 -27 -25 -48 36 -9 25 -27 77
-42 115 -14 39 -29 79 -32 90 l-5 20 14 -20 c8 -11 34 -56 57 -100z m-1722 -5
c22 -41 71 -133 108 -205 37 -71 77 -145 88 -164 48 -79 -12 -14 -137 152
l-135 179 21 28 c16 22 19 37 14 61 -8 41 -7 40 41 -51z m1544 -212 c23 -34
56 -76 71 -94 l28 -32 -21 -36 c-11 -20 -24 -36 -29 -36 -4 0 -26 53 -50 118
-23 64 -45 123 -47 130 -11 26 6 9 48 -50z m-689 -163 c52 -88 138 -237 192
-332 53 -94 106 -179 117 -189 11 -9 33 -17 49 -17 17 0 30 -2 30 -4 0 -8 -73
-103 -79 -103 -3 0 -20 30 -35 68 -38 86 -167 345 -243 487 -33 61 -79 146
-103 190 -69 128 -30 74 72 -100z m-322 -270 c56 -110 111 -215 122 -233 46
-76 3 -46 -115 83 -70 76 -141 155 -157 175 l-30 38 30 10 c41 15 57 52 43
103 -6 23 -7 37 -3 32 4 -4 54 -98 110 -208z m703 67 c39 -56 100 -112 131
-120 l26 -7 -42 -62 c-24 -34 -46 -63 -49 -63 -3 0 -18 39 -33 88 -15 48 -38
113 -50 145 -27 66 -20 74 17 19z m-180 -583 c10 -7 -20 -59 -35 -59 -5 0 -20
7 -33 16 -19 12 -25 25 -25 50 0 19 -15 65 -35 104 -19 38 -35 74 -35 80 0 6
34 -33 76 -87 43 -54 81 -101 87 -104z"/>
</g>
</svg>
